<svg xmlns="http://www.w3.org/2000/svg" viewBox="0 0 720 504"><defs><style>.cls-1{fill:none;}.cls-2{fill:#664f3f;}</style></defs><g id="Layer_7" data-name="Layer 7"><rect class="cls-1" width="720" height="504"/></g><g id="muffinbase"><path class="cls-2" d="M725.78,463.85a46.67,46.67,0,0,1-46.68,46.68,34.61,34.61,0,0,1-5.87-.46,46.43,46.43,0,0,1-34.94-23.53,40.54,40.54,0,0,1-2.58-5.67,62.72,62.72,0,0,1-6.64,5.67A79.14,79.14,0,0,1,541,491.12a48.21,48.21,0,0,0,2.58-4.58h-9.35c2.19,1.61,4.45,3.16,6.77,4.58a58,58,0,1,1-49.39-88.39,58.63,58.63,0,0,1,13.54,1.61A78.84,78.84,0,0,1,660.46,421a44.94,44.94,0,0,1,18.64-3.94A46.73,46.73,0,0,1,725.78,463.85Z" transform="translate(-220.72 -217.16)"/><path class="cls-2" d="M491.61,522a61.25,61.25,0,1,1,11.22-121.45,82.08,82.08,0,0,1,160.6,15.85,48.77,48.77,0,0,1,15.67-2.52,49.94,49.94,0,0,1,0,99.87,37.86,37.86,0,0,1-6.4-.5,49.73,49.73,0,0,1-37.23-25.14q-.51-.94-.93-1.8c-1.09.92-2.27,1.85-3.54,2.81a82.38,82.38,0,0,1-89,6.31A61.51,61.51,0,0,1,491.61,522Zm0-116a54.8,54.8,0,1,0,44.91,86.13c-1.43-.94-2.83-1.93-4.2-2.94a3.22,3.22,0,0,1,1.91-5.82h9.35a3.22,3.22,0,0,1,2.88,4.66c-.33.66-.67,1.31-1,2a76,76,0,0,0,36.17,9.17A75.13,75.13,0,0,0,627.13,484a58.64,58.64,0,0,0,6.3-5.37,3.2,3.2,0,0,1,3-.87,3.25,3.25,0,0,1,2.33,2.07,36.37,36.37,0,0,0,2.38,5.23,43.28,43.28,0,0,0,32.48,21.85,32.49,32.49,0,0,0,5.49.43,43.49,43.49,0,0,0,0-87A41.47,41.47,0,0,0,661.8,424a3.23,3.23,0,0,1-4.56-2.83,75.62,75.62,0,0,0-149-16,3.23,3.23,0,0,1-3.88,2.36A55.39,55.39,0,0,0,491.61,406Z" transform="translate(-220.72 -217.16)"/></g></svg>