<svg xmlns="http://www.w3.org/2000/svg" viewBox="0 0 720 504"><defs><style>.cls-1{fill:none;}.cls-2{fill:#231f20;}.cls-3{fill:#ee4a90;}</style></defs><g id="Layer_7" data-name="Layer 7"><rect class="cls-1" width="720" height="504"/></g><g id="muffinrelleno"><path class="cls-2" d="M542,488.3a3.25,3.25,0,0,1-1.69-.47c-2.39-1.46-4.72-3.07-7-4.73a3.22,3.22,0,0,1,1.91-5.82h9.35a3.22,3.22,0,0,1,2.88,4.66,48.79,48.79,0,0,1-2.77,4.91A3.21,3.21,0,0,1,542,488.3Z" transform="translate(-220.72 -217.16)"/><path class="cls-2" d="M628,603H512a6.47,6.47,0,0,1-5.77-3.56l-44.87-89.75A6.45,6.45,0,0,1,470,501a51.47,51.47,0,0,0,66.55-19.31,6.46,6.46,0,0,1,8.82-2.18,72.69,72.69,0,0,0,80.88-4.19,6.47,6.47,0,0,1,3.88-1.3h9.21a6.45,6.45,0,0,1,5.63,3.31A40.14,40.14,0,0,0,675,497.64a6.43,6.43,0,0,1,5,9.28l-46.22,92.51A6.45,6.45,0,0,1,628,603ZM516,590.11H624.06l40.71-81.49A53.2,53.2,0,0,1,635.7,487h-3.48a85.61,85.61,0,0,1-88.16,6.6,64.37,64.37,0,0,1-64.19,24.36Z" transform="translate(-220.72 -217.16)"/><path class="cls-2" d="M542,488.3a3.25,3.25,0,0,1-1.69-.47c-2.39-1.46-4.72-3.07-7-4.73a3.22,3.22,0,0,1,1.91-5.82h9.35a3.22,3.22,0,0,1,2.88,4.66,48.79,48.79,0,0,1-2.77,4.91A3.21,3.21,0,0,1,542,488.3Z" transform="translate(-220.72 -217.16)"/><path class="cls-2" d="M542,488.3a3.25,3.25,0,0,1-1.69-.47c-2.39-1.46-4.72-3.07-7-4.73a3.22,3.22,0,0,1,1.91-5.82h9.35a3.22,3.22,0,0,1,2.88,4.66,48.79,48.79,0,0,1-2.77,4.91A3.21,3.21,0,0,1,542,488.3Z" transform="translate(-220.72 -217.16)"/><circle class="cls-3" cx="355.28" cy="322.84" r="18"/></g></svg>