<svg id="Layer_9" data-name="Layer 9" xmlns="http://www.w3.org/2000/svg" viewBox="0 0 43.75 37"><defs><style>.cls-1,.cls-2,.cls-3{stroke:#231f20;}.cls-1,.cls-2{stroke-linecap:round;stroke-linejoin:round;}.cls-2{fill:none;}.cls-3{fill:#fff;stroke-miterlimit:10;stroke-width:0.75px;}</style></defs><polygon class="cls-1" points="39.38 9.5 39.38 27.5 21.38 36.5 3.38 27.5 3.38 9.5 21.38 18.5 39.38 9.5"/><polyline class="cls-2" points="3.38 9.5 21.38 0.5 39.38 9.5"/><path class="cls-3" d="M396.5,409a3.48,3.48,0,0,1-1.57-.37l-18-9a3.5,3.5,0,0,1,3.13-6.26l16.44,8.22,16.43-8.22a3.5,3.5,0,1,1,3.13,6.26l-18,9A3.41,3.41,0,0,1,396.5,409Z" transform="translate(-374.62 -377.5)"/></svg>