<svg id="Layer_12" data-name="Layer 12" xmlns="http://www.w3.org/2000/svg" viewBox="0 0 44.27 49.14"><defs><style>.cls-1{fill:none;}.cls-1,.cls-2{stroke:#231f20;stroke-linecap:round;stroke-linejoin:round;stroke-width:2px;}</style></defs><path class="cls-1" d="M636.27,416.14c0,5-8.06,9-18,9s-18-4-18-9c0-2.24,1.64-4.29,4.35-5.86,3.3-1.93,8.19-3.14,13.65-3.14a32.66,32.66,0,0,1,8.9,1.18C632.61,409.87,636.27,412.79,636.27,416.14Z" transform="translate(-593 -377)"/><path class="cls-1" d="M627.27,407.14a6.64,6.64,0,0,1-.1,1.18,32.66,32.66,0,0,0-8.9-1.18c-5.46,0-10.35,1.21-13.65,3.14a7.23,7.23,0,0,1-.73-3.14,8.28,8.28,0,0,1,4-6.74,12.74,12.74,0,0,1,4.4-1.88,14.55,14.55,0,0,1,3.34-.38h.07c4.63,0,8.63,2.12,10.49,5.14A7.33,7.33,0,0,1,627.27,407.14Z" transform="translate(-593 -377)"/><path class="cls-1" d="M628.53,398.34a6.49,6.49,0,0,1-2.39,4.94c-1.86-3-5.86-5.12-10.49-5.14h-.07a14.55,14.55,0,0,0-3.34.38v-.18a6.16,6.16,0,0,1,1-3.4,8,8,0,0,1,4.76-3.29h0a14.39,14.39,0,0,0,6.22-6.35S631.22,394.55,628.53,398.34Z" transform="translate(-593 -377)"/><path class="cls-2" d="M613.28,394.94a6.16,6.16,0,0,0-1,3.4v.18a12.74,12.74,0,0,0-4.4,1.88,3.43,3.43,0,0,1-.69-2.06,4.36,4.36,0,0,1,6.13-3.4Z" transform="translate(-593 -377)"/><path class="cls-1" d="M612.74,393.77" transform="translate(-593 -377)"/><path class="cls-1" d="M618,391.65a4.55,4.55,0,0,1-.73.29" transform="translate(-593 -377)"/><path class="cls-1" d="M605.21,394.3S594.45,391,594,378" transform="translate(-593 -377)"/></svg>