<svg xmlns="http://www.w3.org/2000/svg" viewBox="0 0 479.67 117.91"><defs><style>.cls-1{fill:#ef4a7c;}</style></defs><g id="Layer_2" data-name="Layer 2"><g id="Layer_1-2" data-name="Layer 1"><path class="cls-1" d="M145.89.43A79.56,79.56,0,0,1,135.58,4a31.51,31.51,0,0,1,4.12,3.35,18.19,18.19,0,0,1,3.21,4.12,20.87,20.87,0,0,1,2.1,5.23,27.31,27.31,0,0,1,.77,6.84A18.52,18.52,0,0,1,143,33.43a48.48,48.48,0,0,1-6,7.89,82,82,0,0,1-6,5.79c-1.84,1.59-2.77,2.79-2.77,3.63,0,1.21.93,2.4,2.77,3.56a50.09,50.09,0,0,1,6.17,4.75,29.89,29.89,0,0,1,6.17,8q2.76,5,2.77,13.4a24.64,24.64,0,0,1-2.59,10.2,46.72,46.72,0,0,1-6.7,10.47,50.18,50.18,0,0,1-9.08,8.45,24,24,0,0,1-9.56,4.4c-2.14.46-4.38.83-6.7,1.11a57.35,57.35,0,0,1-6.85.42,25,25,0,0,1-5.86-.7,15.22,15.22,0,0,1-5.24-2.3,13.16,13.16,0,0,1-3.77-4,11.13,11.13,0,0,1-1.46-5.8,8.9,8.9,0,0,1,2.44-6.35,8.72,8.72,0,0,1,11.94-.42,7.15,7.15,0,0,1,2.37,5.52,8.28,8.28,0,0,1-2.86,6.28,10.38,10.38,0,0,1-6.35,2.93,26.44,26.44,0,0,0,5.44,1.33,42.29,42.29,0,0,0,5.45.35q13.68,0,21.36-7.68t7.68-21.22q0-6.28-2.79-10a29.76,29.76,0,0,0-6.14-6.14q-3.36-2.45-6.15-4.33a5.63,5.63,0,0,1-2.79-4.82,7.08,7.08,0,0,1,2.58-5.3c1.72-1.59,3.63-3.4,5.73-5.45A36.82,36.82,0,0,0,132,39.85q2.66-4.47,2.66-11.73a22.31,22.31,0,0,0-3.21-11.45A22.75,22.75,0,0,0,123,8.29a41.43,41.43,0,0,0-13,10.83,55.62,55.62,0,0,0-7.61,13.47A89.27,89.27,0,0,0,98,47.88q-1.61,8-3.7,16.2A130.72,130.72,0,0,1,89,80.27a57.2,57.2,0,0,1-9.08,15.15,59.43,59.43,0,0,1-10,9.64,62.12,62.12,0,0,1-11.8,7A64,64,0,0,1,45,116.44a64.94,64.94,0,0,1-13.68,1.47A64.11,64.11,0,0,1,21,117a36.67,36.67,0,0,1-10.19-3.21,22.16,22.16,0,0,1-7.75-6.22A15.74,15.74,0,0,1,0,97.52Q0,89.14,3.77,83.7a27,27,0,0,1,9.63-8.59,45.92,45.92,0,0,1,13-4.54,106.85,106.85,0,0,1,13.82-1.82,66.39,66.39,0,0,1,7.68-27.29A75.72,75.72,0,0,1,65.07,19.88,79.12,79.12,0,0,1,88.88,5.71,77.25,77.25,0,0,1,116.73.61a38.94,38.94,0,0,1,6,.49l6.42,1c1.21-.28,2.65-.56,4.33-.84s3.35-.51,5-.7,3.28-.34,4.81-.48a18.32,18.32,0,0,1,3.56-.07ZM43.57,68.75a27.88,27.88,0,0,1,13.54,4.54c4.28,2.75,6.23,5.88,8.66,10.83l1.11,2.09Q64.51,84,61.93,81.67a36.05,36.05,0,0,0-5.52-4,34.22,34.22,0,0,0-6.07-2.86,19.56,19.56,0,0,0-6.63-1.12,34.09,34.09,0,0,0,2.09,8.94c1.12,3,2.32,5.82,3.63,8.52l-.9-.74c-4.31-3.65-4.61-4.07-6.29-7.36-1.47-2.88-1.66-6.24-2-9.5l-1.81.14a77.07,77.07,0,0,0-10.75,1.89A54.3,54.3,0,0,0,16,79.72a33.58,33.58,0,0,0-9.43,6.77,13.42,13.42,0,0,0-3.91,9.63,13.85,13.85,0,0,0,2.45,8,22.4,22.4,0,0,0,6.07,6,28.16,28.16,0,0,0,8,3.7,31,31,0,0,0,8.45,1.25q14.24,0,23.25-3.07a38.26,38.26,0,0,0,14.6-8.52,38.59,38.59,0,0,0,8.66-12.7,118.46,118.46,0,0,0,5.31-15.64q2.23-8.39,4.61-17.46a105.08,105.08,0,0,1,6.56-18,82.2,82.2,0,0,1,11.18-17.38A74.29,74.29,0,0,1,120.4,6.76a38.66,38.66,0,0,0-12.58-2.1A53.93,53.93,0,0,0,84,10.18,71.93,71.93,0,0,0,63.82,24.7,74.92,74.92,0,0,0,49.57,45.23,61.25,61.25,0,0,0,43.57,68.75Z"/><path class="cls-1" d="M148.15,91.93a26.59,26.59,0,0,1,6.35-6.63,12.51,12.51,0,0,1,8.87-2.58,2.84,2.84,0,0,1,2.37,1.53,15.19,15.19,0,0,1,.84,2.38,28.23,28.23,0,0,1-.28,5.58c-.28,1.87-.63,3.7-1.05,5.52s-.86,3.63-1.32,5.44a52,52,0,0,0-1.12,5.66c0,.84.49,1.37,1.47,1.6a2.13,2.13,0,0,0,2.3-.62,32.59,32.59,0,0,0,9.42-12,88.59,88.59,0,0,0,5.24-14.52h9.22q-.57,2.37-1.33,5.51t-1.54,6.49q-.76,3.36-1.46,6.43a42.27,42.27,0,0,0-.91,5.23,7.54,7.54,0,0,0,.14,3.08q.34.9,1.47-.21l6.17-7.63-.1.58a21.36,21.36,0,0,1-2.44,6.14,16.37,16.37,0,0,1-1.84,2.56c-.55.6-1.16,1.07-1.58,1.49s-.91.86-1.47,1.32a8,8,0,0,1-2.51,1.4,10.56,10.56,0,0,1-3.08.63,5.64,5.64,0,0,1-2.79-.56,3.29,3.29,0,0,1-1.67-2.3,15.58,15.58,0,0,1,.07-5.31c.32-1.86.58-3.63.76-5.31a42,42,0,0,1-5.79,7.61,25.72,25.72,0,0,1-7.75,5.52,8.37,8.37,0,0,1-5.58.63,5.71,5.71,0,0,1-4.33-3.84,24.1,24.1,0,0,1,.35-8.31c.6-3.12,1.18-6,1.74-8.66a57.4,57.4,0,0,0,1-6.28c.14-1.54-.44-1.89-1.75-1a19.52,19.52,0,0,1-2.89,1.82,18.92,18.92,0,0,1-2.1,1.12"/><path class="cls-1" d="M240.48,105c-.86,5.09-2.2,6.33-4.85,8.29a13.27,13.27,0,0,1-8.87,2.65,2.82,2.82,0,0,1-2.37-1.54,13,13,0,0,1-.84-2.37,20.1,20.1,0,0,1,.21-5.58c.32-1.87.7-3.71,1.12-5.52s.85-3.65,1.32-5.52a55.61,55.61,0,0,0,1.12-5.72c0-.84-.49-1.35-1.47-1.54a2.43,2.43,0,0,0-2.3.56,32.27,32.27,0,0,0-5.38,5.59,45.75,45.75,0,0,0-4,6.49,54.62,54.62,0,0,0-3,7.12q-1.26,3.7-2.23,7.47h-9.22c.37-1.58.82-3.42,1.33-5.51s1-4.26,1.53-6.5,1-4.4,1.47-6.49a46.29,46.29,0,0,0,.91-5.31,7.51,7.51,0,0,0-.14-3.07c-.24-.6-.72-.53-1.47.21a9.77,9.77,0,0,1-2.47,2.58,15.68,15.68,0,0,1-3.74,2.37l-.49.22q1.82-2.65,3-4.19c.79-1,1.47-1.86,2-2.51a15.13,15.13,0,0,1,1.46-1.54q.63-.56,1.47-1.26A8,8,0,0,1,207.07,83a10.5,10.5,0,0,1,3.07-.63,5.55,5.55,0,0,1,2.8.56,3.29,3.29,0,0,1,1.67,2.3,15.58,15.58,0,0,1-.07,5.31c-.33,1.86-.58,3.63-.77,5.3a45.25,45.25,0,0,1,5.8-7.68,23.33,23.33,0,0,1,7.75-5.44,8.36,8.36,0,0,1,5.58-.63,5.73,5.73,0,0,1,4.33,3.84,24.35,24.35,0,0,1-.35,8.31q-.9,4.68-1.74,8.65a57.89,57.89,0,0,0-1,6.29c-.14,1.53.44,1.88,1.75,1a12.67,12.67,0,0,0,2.51-2.38c.56-.74,1.75-2.83,2.22-3.67"/><path class="cls-1" d="M390.37.6A70,70,0,0,1,380.08,4a32.89,32.89,0,0,1,4.12,3.35,18.77,18.77,0,0,1,3.21,4.12,21.24,21.24,0,0,1,2.09,5.23,27.31,27.31,0,0,1,.77,6.84,18.52,18.52,0,0,1-2.77,9.92,48.48,48.48,0,0,1-6,7.89q-3.25,3.42-6,5.79c-1.85,1.59-2.77,2.79-2.77,3.63q0,1.82,2.77,3.56a50.07,50.07,0,0,1,6.16,4.75,29.69,29.69,0,0,1,6.17,8q2.76,5,2.77,13.4A24.62,24.62,0,0,1,388,90.68a46.77,46.77,0,0,1-6.71,10.47,50.13,50.13,0,0,1-9.07,8.45,24.12,24.12,0,0,1-9.57,4.4q-3.21.69-6.7,1.11a57.31,57.31,0,0,1-6.84.42,25,25,0,0,1-5.87-.7,15.09,15.09,0,0,1-5.23-2.3,12.93,12.93,0,0,1-3.77-4,11,11,0,0,1-1.47-5.8,8.9,8.9,0,0,1,2.44-6.35,8.72,8.72,0,0,1,11.94-.42,7.13,7.13,0,0,1,2.38,5.52,8.29,8.29,0,0,1-2.87,6.28,10.34,10.34,0,0,1-6.35,2.93,26.52,26.52,0,0,0,5.45,1.33,42,42,0,0,0,5.44.35q13.68,0,21.37-7.68t7.68-21.22q0-6.28-2.8-10a29.76,29.76,0,0,0-6.14-6.14C369,65.66,367,64.22,365.14,63a5.62,5.62,0,0,1-2.8-4.82,7.06,7.06,0,0,1,2.59-5.3c1.72-1.59,3.63-3.4,5.72-5.45a36.49,36.49,0,0,0,5.8-7.54q2.64-4.47,2.65-11.73a22.22,22.22,0,0,0-3.21-11.45,22.68,22.68,0,0,0-8.38-8.38,41.66,41.66,0,0,0-13,10.83,56,56,0,0,0-7.61,13.47,88.36,88.36,0,0,0-4.46,15.29q-1.62,8-3.7,16.2a132.48,132.48,0,0,1-5.31,16.19,56.94,56.94,0,0,1-9.08,15.15,59.05,59.05,0,0,1-10,9.64,62.12,62.12,0,0,1-11.8,7,64.07,64.07,0,0,1-13.12,4.33,65.1,65.1,0,0,1-13.69,1.47,63.9,63.9,0,0,1-10.26-.91,36.63,36.63,0,0,1-10.2-3.21,22.16,22.16,0,0,1-7.75-6.22,15.8,15.8,0,0,1-3.07-10q0-8.38,3.77-13.82a27.08,27.08,0,0,1,9.64-8.59,46,46,0,0,1,13-4.54,106.77,106.77,0,0,1,13.83-1.82,66.24,66.24,0,0,1,7.68-27.29,75.69,75.69,0,0,1,17.17-21.58A79.25,79.25,0,0,1,333.37,5.71,77.3,77.3,0,0,1,361.23.61a38.92,38.92,0,0,1,6,.49l6.42,1c1.21-.28,2.66-.56,4.33-.84s3.35-.51,5-.7,3.28-.34,4.82-.48a18.31,18.31,0,0,1,3.56-.07ZM288.06,68.75a27.85,27.85,0,0,1,13.54,4.54c4.28,2.75,4.71,3.36,7.31,8.11l2.47,4.81q-2.38-2.23-5-4.54a35.57,35.57,0,0,0-5.52-4,34.22,34.22,0,0,0-6.07-2.86,19.52,19.52,0,0,0-6.63-1.12,34.91,34.91,0,0,0,2.09,8.94q1.68,4.47,3.63,8.52l-1.19-.85c-4.22-3.42-5-4.18-6-7.25a49.71,49.71,0,0,1-2-9.5l-1.82.14a77.33,77.33,0,0,0-10.75,1.89,54.5,54.5,0,0,0-11.66,4.19,33.39,33.39,0,0,0-9.42,6.77,13.38,13.38,0,0,0-3.91,9.63,13.84,13.84,0,0,0,2.44,8,22.54,22.54,0,0,0,6.07,6,28.16,28.16,0,0,0,8,3.7,31,31,0,0,0,8.45,1.25q14.25,0,23.25-3.07a36.64,36.64,0,0,0,23.26-21.22A118.46,118.46,0,0,0,324,75.18q2.24-8.39,4.61-17.46a104.29,104.29,0,0,1,6.57-18,82.14,82.14,0,0,1,11.17-17.38A74.29,74.29,0,0,1,364.89,6.76a38.65,38.65,0,0,0-12.57-2.1,53.94,53.94,0,0,0-23.82,5.52A71.93,71.93,0,0,0,308.31,24.7a75.36,75.36,0,0,0-14.25,20.53A61.25,61.25,0,0,0,288.06,68.75Z"/><path class="cls-1" d="M414.57,80.9a25.88,25.88,0,0,1,7.54.77,13.08,13.08,0,0,1,5.58,3,11.83,11.83,0,0,1,3.21,5.52,22.27,22.27,0,0,1,.42,8.45,26,26,0,0,1-2.51,8.72,15,15,0,0,1-4.61,5.38,17.35,17.35,0,0,1-6.49,2.72,39,39,0,0,1-7.89.77q-7,0-11.1-4T394.6,101a21.84,21.84,0,0,1,1.6-8.73,17.73,17.73,0,0,1,4.4-6.21A18.63,18.63,0,0,1,407,82.3,25.42,25.42,0,0,1,414.57,80.9Zm-9.64,22.76a29.73,29.73,0,0,0,.21,3.56,10.71,10.71,0,0,0,.84,3.15,5.17,5.17,0,0,0,1.88,2.23,6.23,6.23,0,0,0,3.49.84,5.17,5.17,0,0,0,4.68-2A18,18,0,0,0,419.1,106a32.48,32.48,0,0,0,1.68-6.71,44.43,44.43,0,0,0,.49-5.86,15,15,0,0,0-1.4-7q-1.39-2.65-4.89-2.38a6.56,6.56,0,0,0-4.81,2.31,17.42,17.42,0,0,0-3.08,5.23,29.36,29.36,0,0,0-1.67,6.43A39.25,39.25,0,0,0,404.93,103.66Z"/><path class="cls-1" d="M479.67,104.11c-.32,5-3.32,7.23-6,9.19a13.26,13.26,0,0,1-8.87,2.65,2.82,2.82,0,0,1-2.37-1.54,14.75,14.75,0,0,1-.84-2.37,20.1,20.1,0,0,1,.21-5.58q.5-2.8,1.12-5.52c.42-1.82.86-3.65,1.32-5.52a55.61,55.61,0,0,0,1.12-5.72c0-.84-.49-1.35-1.47-1.54a2.43,2.43,0,0,0-2.3.56,31.84,31.84,0,0,0-5.37,5.59,44,44,0,0,0-4.05,6.49,53.32,53.32,0,0,0-3,7.12c-.83,2.47-1.58,5-2.23,7.47h-9.22c.37-1.58.82-3.42,1.33-5.51s1-4.26,1.54-6.5,1-4.4,1.46-6.49a44.19,44.19,0,0,0,.91-5.31,7.51,7.51,0,0,0-.14-3.07q-.34-.9-1.47.21a8.45,8.45,0,0,1-2,2.31,13.06,13.06,0,0,1-3.59,2.36l-1.08.5q1.81-2.65,3-4.19c.79-1,1.47-1.86,2-2.51a16.25,16.25,0,0,1,1.47-1.54c.41-.37.9-.79,1.46-1.26A8,8,0,0,1,445.14,83a10.56,10.56,0,0,1,3.08-.63,5.53,5.53,0,0,1,2.79.56,3.24,3.24,0,0,1,1.67,2.3,15.58,15.58,0,0,1-.07,5.31c-.32,1.86-.58,3.63-.76,5.3a44.68,44.68,0,0,1,5.79-7.68,23.43,23.43,0,0,1,7.75-5.44,8.39,8.39,0,0,1,5.59-.63,5.72,5.72,0,0,1,4.32,3.84,24.33,24.33,0,0,1-.34,8.31q-.91,4.68-1.75,8.65a57.89,57.89,0,0,0-1,6.29c-.14,1.53.44,1.88,1.75,1a12.4,12.4,0,0,0,2.51-2.38c.56-.74,2.6-3.92,3.07-4.76"/></g></g></svg>