<svg xmlns="http://www.w3.org/2000/svg" viewBox="0 0 45 34.78"><defs><style>.cls-1{fill:#281e12;}</style></defs><g id="Layer_2" data-name="Layer 2"><g id="Layer_1-2" data-name="Layer 1"><path class="cls-1" d="M45,2.39A108.5,108.5,0,0,1,22.5,4.78,108.5,108.5,0,0,1,0,2.39,108.5,108.5,0,0,1,22.5,0,108.5,108.5,0,0,1,45,2.39Z"/><path class="cls-1" d="M45,17.39a108.5,108.5,0,0,1-22.5,2.39A108.5,108.5,0,0,1,0,17.39,108.5,108.5,0,0,1,22.5,15,108.5,108.5,0,0,1,45,17.39Z"/><path class="cls-1" d="M45,32.39a108.5,108.5,0,0,1-22.5,2.39A108.5,108.5,0,0,1,0,32.39,108.5,108.5,0,0,1,22.5,30,108.5,108.5,0,0,1,45,32.39Z"/></g></g></svg>