<svg id="Layer_15" data-name="Layer 15" xmlns="http://www.w3.org/2000/svg" viewBox="0 0 47.32 42.02"><defs><style>.cls-1{fill:none;stroke:#231f20;stroke-linecap:round;stroke-linejoin:round;stroke-width:2px;}</style></defs><path class="cls-1" d="M416.51,479.94l-7.17,14.35h-18l-7-13.92A9,9,0,0,0,396,477a12.28,12.28,0,0,0,13.66-.71h1.43A7.21,7.21,0,0,0,416.51,479.94Z" transform="translate(-378.34 -453.27)"/><path class="cls-1" d="M396,477a9,9,0,1,1-7.66-13.71,9.08,9.08,0,0,1,2.1.25,12.23,12.23,0,0,1,24.09,2.59,7,7,0,0,1,2.89-.61,7.25,7.25,0,0,1,0,14.49,5.49,5.49,0,0,1-.91-.07,7.21,7.21,0,0,1-5.42-3.65,6.39,6.39,0,0,1-.4-.88,9.57,9.57,0,0,1-1,.88A12.28,12.28,0,0,1,396,477" transform="translate(-378.34 -453.27)"/><line class="cls-1" x1="11.86" y1="17.39" x2="15.41" y2="13.84"/><line class="cls-1" x1="31.97" y1="13.38" x2="27.54" y2="8.95"/><line class="cls-1" x1="24.45" y1="18.51" x2="27.33" y2="15.63"/><line class="cls-1" x1="39.91" y1="21.18" x2="36.19" y2="17.46"/><line class="cls-1" x1="17.41" y1="7.4" x2="21.28" y2="3.54"/><line class="cls-1" x1="4.55" y1="25.61" x2="7.43" y2="22.73"/></svg>