<svg id="Layer_14" data-name="Layer 14" xmlns="http://www.w3.org/2000/svg" viewBox="0 0 47.32 42.02"><defs><style>.cls-1{fill:none;stroke-width:2px;}.cls-1,.cls-2{stroke:#231f20;stroke-linecap:round;stroke-linejoin:round;}</style></defs><path class="cls-1" d="M783,401.48a7.24,7.24,0,0,1-7.24,7.24,5.49,5.49,0,0,1-.91-.07L767.68,423h-18l-7-13.92a9,9,0,0,1,4-17.08,9.08,9.08,0,0,1,2.1.25,12.23,12.23,0,0,1,24.09,2.59,7,7,0,0,1,2.89-.61A7.25,7.25,0,0,1,783,401.48Z" transform="translate(-736.68 -381.98)"/><circle class="cls-2" cx="22.66" cy="22.01" r="6"/></svg>