<svg id="Layer_13" data-name="Layer 13" xmlns="http://www.w3.org/2000/svg" viewBox="0 0 46.32 41.52"><defs><style>.cls-1,.cls-2{fill:none;}.cls-1,.cls-2,.cls-3{stroke:#231f20;stroke-linecap:round;stroke-linejoin:round;}.cls-2{stroke-width:2px;}</style></defs><path class="cls-1" d="M682.74,405a7.14,7.14,0,0,1-.4.71c-.36-.22-.71-.46-1.05-.71Z" transform="translate(-665.18 -382.48)"/><path class="cls-2" d="M702.85,408.65,695.68,423h-18l-7-13.92a9,9,0,0,0,11.62-3.37A12.28,12.28,0,0,0,696,405h1.43A7.21,7.21,0,0,0,702.85,408.65Z" transform="translate(-665.18 -382.48)"/><path class="cls-3" d="M711,401.48a7.24,7.24,0,0,1-7.24,7.24,5.49,5.49,0,0,1-.91-.07,7.21,7.21,0,0,1-5.42-3.65,6.39,6.39,0,0,1-.4-.88,9.57,9.57,0,0,1-1,.88,12.28,12.28,0,0,1-13.66.71,7.14,7.14,0,0,0,.4-.71h-1.45c.34.25.69.49,1.05.71A9,9,0,1,1,674.68,392a9.08,9.08,0,0,1,2.1.25,12.23,12.23,0,0,1,24.09,2.59,7,7,0,0,1,2.89-.61A7.25,7.25,0,0,1,711,401.48Z" transform="translate(-665.18 -382.48)"/><path class="cls-1" d="M682.74,405a7.14,7.14,0,0,1-.4.71c-.36-.22-.71-.46-1.05-.71Z" transform="translate(-665.18 -382.48)"/><path class="cls-1" d="M682.74,405a7.14,7.14,0,0,1-.4.71c-.36-.22-.71-.46-1.05-.71Z" transform="translate(-665.18 -382.48)"/></svg>