<svg id="Layer_1" data-name="Layer 1" xmlns="http://www.w3.org/2000/svg" viewBox="0 0 40 58"><defs><style>.cls-1{fill:#fff;stroke:#fff;stroke-miterlimit:10;}</style></defs><path class="cls-1" d="M509.09,528.62H490a10,10,0,0,1-9.94-9.94V481.57a10,10,0,0,1,9.94-9.95h19.11a10,10,0,0,1,9.95,9.95v37.11A10,10,0,0,1,509.09,528.62Zm-19.11-54a7,7,0,0,0-6.94,6.95v37.11a6.94,6.94,0,0,0,6.94,6.94h19.11a7,7,0,0,0,6.95-6.94V481.57a7,7,0,0,0-6.95-6.95Z" transform="translate(-479.54 -471.12)"/><path class="cls-1" d="M506.58,483.62H492.49a3.46,3.46,0,0,1-3.45-3.45v-5.1a3.46,3.46,0,0,1,3.45-3.45h14.09a3.46,3.46,0,0,1,3.46,3.45v5.1A3.46,3.46,0,0,1,506.58,483.62Zm-14.09-9a.45.45,0,0,0-.45.45v5.1a.45.45,0,0,0,.45.45h14.09a.46.46,0,0,0,.46-.45v-5.1a.46.46,0,0,0-.46-.45Z" transform="translate(-479.54 -471.12)"/><path class="cls-1" d="M508.54,492.62h-18a1.5,1.5,0,0,1,0-3h18a1.5,1.5,0,1,1,0,3Z" transform="translate(-479.54 -471.12)"/><path class="cls-1" d="M508.54,501.62h-18a1.5,1.5,0,0,1,0-3h18a1.5,1.5,0,1,1,0,3Z" transform="translate(-479.54 -471.12)"/><path class="cls-1" d="M508.54,510.62h-18a1.5,1.5,0,0,1,0-3h18a1.5,1.5,0,1,1,0,3Z" transform="translate(-479.54 -471.12)"/></svg>