<svg id="Layer_1" data-name="Layer 1" xmlns="http://www.w3.org/2000/svg" viewBox="0 0 598.55 592.75"><defs><style>.cls-1{fill:#fff;stroke:#fff;stroke-linecap:round;stroke-linejoin:round;stroke-width:3px;}</style></defs><path class="cls-1" d="M600,651.85a194.7,194.7,0,0,0-29.9,13.49c-3.11,1.81-6.48,3.61-9.8,5.87l-5.19,3.36-5.27,3.8c-3.65,2.52-7.15,5.56-10.94,8.57-1.84,1.56-3.64,3.25-5.53,4.93l-2.83,2.55-2.76,2.75a187.53,187.53,0,0,0-21.91,25.66l-2.66,3.71-2.5,3.88-1,1.57-.82,1.22c-.55.81-1,1.67-1.52,2.49-1,1.66-2,3.25-2.82,4.91-.42.8-.85,1.61-1.27,2.43l-.63,1.19c-.23-.35-.45-.93-.68-1.39a46.31,46.31,0,0,0-3.74-6.47c-.69-1-1.42-1.93-2.17-2.86l-1.27-1.43-2.41-2.37a73.8,73.8,0,0,0-54.48-20.19A76.8,76.8,0,0,0,412,711.89c-1.34.3-2.63.75-4,1.13l-.88.28-.54.17-1.06.36-1.46.53c-.44.16-.88.4-1.29.51-.56-.64-1.12-1.25-1.7-1.81l-.44-.41-.24-.21c-.13-.1-.09-.09-.41-.33-1-.79-2-1.47-3-2.17a66.11,66.11,0,0,0-13.16-7,65.17,65.17,0,0,0-30.32-4.21,62.93,62.93,0,0,0-15.7,3.65,41.52,41.52,0,0,0-3.92,1.67c-1.31.57-2.56,1.31-3.83,2a14.44,14.44,0,0,0-1.64,1,20.1,20.1,0,0,0-4.14,4.43l-.59.8,0,0,0-.1,0-.2.06-.4.12-.77c.17-1,.32-2,.42-2.92.25-1.84.4-3.47.49-4.92l0-.62v-.15l0-.72,0-1.54c0-2.06-.23-4.12-.34-6.18-.25-4.13-.5-8.28-1-12.43-.23-2.08-.45-4.16-.68-6.24s-.61-4.16-.91-6.25l-1-6.27c-.34-2.1-.8-4.17-1.2-6.26q-2.51-12.85-6.27-25.68c.26.19.5.4.76.59a244,244,0,0,0,35.3,22.15c3.11,1.67,6.37,3.09,9.58,4.62s6.59,2.84,9.94,4.15,6.74,2.56,10.21,3.59l5.18,1.62,5.27,1.4c3.29.95,6.67,1.57,10,2.32s6.75,1.17,10.12,1.75a180,180,0,0,0,20.49,1.61,151.33,151.33,0,0,0,40.83-4.64,136.51,136.51,0,0,0,19.5-6.73,118.83,118.83,0,0,0,18.18-9.58,134.24,134.24,0,0,0,30.3-26.52,129.44,129.44,0,0,0,20.63-33.78,132.31,132.31,0,0,0,9.15-37.59c2.16-25.36-2.89-50.84-15-72.18A115.94,115.94,0,0,0,531.6,455.3,121.09,121.09,0,0,0,503,435.82c-20.4-10-43.17-13.81-64.33-10.68s-40.53,12.51-54.34,26.9A98.87,98.87,0,0,0,368,475.33a132.65,132.65,0,0,0-9.59,24.76c-4.63,16.59-5.7,33.83-1.34,49.16s13.56,28.12,25.55,35.29A48.14,48.14,0,0,0,401.33,591a52.11,52.11,0,0,0,18.05-1,48.56,48.56,0,0,0,15.1-6.42,40.09,40.09,0,0,0,10.68-10.14,42.63,42.63,0,0,0,6.1-11.51,50,50,0,0,0,1.67-5.66c.22-.92.33-1.85.5-2.75a20.68,20.68,0,0,0,.36-2.66,58.43,58.43,0,0,0,.29-7.68s0-.09,0-.14a24.3,24.3,0,0,0-.63-5.43,19.78,19.78,0,0,0-1.22-4l-.12-.24,0,.13a24.41,24.41,0,1,0-4.07,25.4c-2.42,12.85-14.54,20.51-23.16,24.38a43.92,43.92,0,0,1-22.55,1.24,40.9,40.9,0,0,1-15.45-6.68c-9.52-6.69-16.58-18.18-19.27-31.25s-.9-27.85,4.19-42.33,13-29.13,24.64-39.88,27.52-17.36,44.6-18.9,35,2.37,51.08,11.18a98.25,98.25,0,0,1,22.14,16.56,91.58,91.58,0,0,1,16.43,22.64c8.7,16.78,12,37,9.7,56.81a105.23,105.23,0,0,1-7.9,28.93A101,101,0,0,1,516,607.25a105.2,105.2,0,0,1-23.73,20,89.57,89.57,0,0,1-13.95,7.08,107.45,107.45,0,0,1-15.05,5A122.2,122.2,0,0,1,431,642.69a147.06,147.06,0,0,1-16.68-1.37c-2.77-.5-5.57-.88-8.34-1.47s-5.56-1.12-8.3-1.92l-4.37-1.16L389,635.41c-2.9-.83-5.69-2-8.53-3s-5.56-2.24-8.33-3.44-5.52-2.49-8.2-3.92a218.45,218.45,0,0,1-31-19.12c-19.68-14.37-37.29-31.49-53.68-49.33l-24.05,18.48a263.26,263.26,0,0,1,37.22,87c.42,1.88.9,3.75,1.27,5.63s.7,3.77,1.05,5.64.75,3.75,1,5.63l.81,5.63c.6,3.74.95,7.49,1.32,11.23.16,1.86.43,3.72.51,5.59.15,2.9.29,5.8.44,8.7.05,1.77,0,3.6.07,5.4l0,2.69c0,.91-.09,1.9-.13,2.85-.19,3.81-.39,7.6-.59,11.39l-.29,5.64c-.09,1.88-.17,3.71-.36,5.73q-.46,5.91-.94,11.77-.92,11.18-1.82,22.22l-.44,5.3-.22,2.64-.1,1.31-.06.65v.39l.07,3.08,0,1.52v2.09q9.85-15.76,19.58-31.27l10-15.65c1.6-2.42,3.18-4.84,4.77-7.24s3-4.21,4.54-6.31l2.21-2.57,1.11-1.27a6.82,6.82,0,0,1,1.12-1.15l2.29-2,1.14-1c.18-.16.57-.4.84-.59l.3-.19a22.31,22.31,0,0,1,2.06-1.22,19.47,19.47,0,0,1,2.2-1.07,41.55,41.55,0,0,1,9.94-2.82,44.24,44.24,0,0,1,20.58,1.82,47.08,47.08,0,0,1,9.33,4.3c.72.45,1.46.87,2.13,1.38l.83.6c.32.22.65.51,1,.77a22.82,22.82,0,0,1,1.91,1.67c2.52,2.32,4.93,4.63,7.29,6.91,1.78-.89,3.56-1.88,5.33-2.8l2.67-1.38,1.33-.68.67-.34.58-.25,2.32-1,1.15-.51.46-.18.37-.13c1-.34,1.94-.75,2.94-1a59.21,59.21,0,0,1,12.06-2.51,58.51,58.51,0,0,1,23.63,2.35,60,60,0,0,1,20,11c.73.64,1.38,1.16,2.18,1.9l3,3.08c1,1.16,1.91,2.4,2.86,3.57s1.78,2.73,2.67,4.05c3.5,5.6,7.9,11.95,10.72,17.13.18-.44.2-.42.44-1,.47-1.1.95-2.21,1.43-3.31.93-2.18,1.87-4.34,2.79-6.49,1.78-4.29,3.8-8.4,5.65-12.41.95-2,1.82-4,2.81-5.87.49-.93,1-1.86,1.49-2.76l1.3-2.34c.71-1.28,1.42-2.56,2.11-3.83l2.27-3.67a184.42,184.42,0,0,1,19.1-25.93L536,699.8l2.53-2.66c1.69-1.74,3.3-3.5,5-5.14,3.42-3.18,6.58-6.39,9.93-9.1l4.81-4.09,4.78-3.67c3.06-2.46,6.19-4.48,9.08-6.5a201.16,201.16,0,0,1,28.27-15.81c3.37-1.51,6-2.52,7.73-3.26l2.63-1.1-2.72.84C606.22,649.89,603.5,650.65,600,651.85Z" transform="translate(-200.72 -203.62)"/><path class="cls-1" d="M797.61,311.66c-.1-1.46-.17-2.91-.32-4.39a76.16,76.16,0,0,0-1.54-8.95,66.13,66.13,0,0,0-6.86-17.78,53.63,53.63,0,0,0-13.33-15.66,52.37,52.37,0,0,0-18.26-9.17,66,66,0,0,0-36.26.62,102.13,102.13,0,0,0-28.29,13.91c-8.11,5.48-14.87,11.13-21.67,16.63a424,424,0,0,0-64,66.37,409.33,409.33,0,0,0-34,51.45l-4.56,8.49c-1.31,2.46-2.32,4.59-3.18,6.29-1.68,3.42-2.57,5.21-2.57,5.21l3.72-4.46c1.22-1.46,2.68-3.29,4.48-5.4l6.21-7.27c9.39-10.86,23.36-26.17,41.74-43.6a585.55,585.55,0,0,1,68.51-55.63c13.76-9.39,27.88-19.24,41.67-22.49a42.4,42.4,0,0,1,10-1.17,32.77,32.77,0,0,1,9.35,1.39c5.76,1.85,9.45,4.8,12.65,10.31a36.59,36.59,0,0,1,3.65,9.36,45.59,45.59,0,0,1,1,5.28c.12.91.17,1.86.26,2.78a23.8,23.8,0,0,1,.19,2.8l.06,2.81c0,.93-.09,1.88-.12,2.82,0,1.88-.34,3.76-.52,5.64a74.66,74.66,0,0,1-2.51,11.22A91.49,91.49,0,0,1,759.05,350a109,109,0,0,1-5.49,10.36,115.33,115.33,0,0,1-13.92,18.6C729.13,390.39,717,400,705,408.42s-24,15.84-34.86,22.84-20.68,13.56-29,19.73a259.92,259.92,0,0,0-20.42,16.79c-10.61,9.8-19.42,17.46-16.5,15l4.6-3.52c3.07-2.22,7.59-5.47,13.67-9.19s13.7-7.9,22.76-12.3,19.6-9,31.4-14,24.89-10.57,38.78-17.68S744,410.14,757.91,397.8a130.3,130.3,0,0,0,19.39-21.54,126.92,126.92,0,0,0,8.11-12.91,113.86,113.86,0,0,0,6.47-14.45A99,99,0,0,0,796.26,333c.43-2.77,1-5.54,1.13-8.4.11-1.42.28-2.84.32-4.28l.06-4.34C797.81,314.58,797.71,313.12,797.61,311.66Z" transform="translate(-200.72 -203.62)"/><path class="cls-1" d="M311.34,453.43s-13.94-25.91-38.47-66.35c-6.11-10.08-13-21.18-20.27-32.82-7.13-11.57-14.29-23.75-18.3-36.55a85.2,85.2,0,0,1-2.34-9.65c-.17-1.61-.46-3.19-.59-4.82s-.3-3.25-.22-4.91a68.93,68.93,0,0,1,2.86-20,71.92,71.92,0,0,1,8.93-18.78,65.27,65.27,0,0,1,6.61-8.12c.61-.61,1.17-1.29,1.82-1.86l1.94-1.76a21.28,21.28,0,0,1,1.92-1.61,20.49,20.49,0,0,1,2-1.49,45.69,45.69,0,0,1,17.67-7.69,26,26,0,0,1,15.48,1.38c4.12,1.86,8,5.79,11.53,11.39a98,98,0,0,1,5,9.23c1.6,3.3,3.16,6.9,4.73,10.35a693.45,693.45,0,0,1,28.72,76c7,22.24,11.58,40.72,14.58,53.57,1.45,6.44,2.6,11.46,3.3,14.88s1.14,5.21,1.14,5.21.08-1.84.23-5.33.26-8.66.29-15.33A432.24,432.24,0,0,0,355.94,342a445.42,445.42,0,0,0-19.19-82.3c-1.29-3.8-2.53-7.57-4.07-11.6a117.11,117.11,0,0,0-5.56-12.54,67.42,67.42,0,0,0-8.77-13,54.85,54.85,0,0,0-6.21-6.05,58.46,58.46,0,0,0-7.55-5.12,52,52,0,0,0-17.33-5.66,58.5,58.5,0,0,0-17.54.18,73.64,73.64,0,0,0-31,12.79c-1.18.79-2.3,1.66-3.4,2.56s-2.23,1.78-3.19,2.71l-3,2.78c-1,.93-1.88,1.95-2.81,2.93a90.12,90.12,0,0,0-9.76,12.61,95,95,0,0,0-11.92,28.27,91.46,91.46,0,0,0-2,29.38c.13,2.41.64,4.8,1,7.16s1,4.68,1.55,7a103.3,103.3,0,0,0,4.56,12.87,127.36,127.36,0,0,0,12.43,21.71c4.52,6.45,9.23,12.21,13.79,17.61,9.12,10.66,17.65,20.29,25.54,29.16C292.94,430.77,313.08,455.82,311.34,453.43Z" transform="translate(-200.72 -203.62)"/></svg>