<svg id="Layer_1" data-name="Layer 1" xmlns="http://www.w3.org/2000/svg" viewBox="0 0 54.46 60"><defs><style>.cls-1{fill:#ef497c;}</style></defs><path class="cls-1" d="M7.22,60a7.41,7.41,0,0,1-1.41-.14A7.22,7.22,0,0,1,.14,51.37L7.77,13.21A1.5,1.5,0,0,1,9.24,12h36a1.5,1.5,0,0,1,1.47,1.21l7.61,38.16a7.41,7.41,0,0,1,.14,1.41A7.23,7.23,0,0,1,47.24,60h-40Zm3.25-45L3.08,52a4.23,4.23,0,0,0,3.31,5,3.55,3.55,0,0,0,.85.08h40a4.22,4.22,0,0,0,4.22-4.22,4.47,4.47,0,0,0-.08-.82L44,15Z" transform="translate(0)"/><path class="cls-1" d="M18.24,21a1.5,1.5,0,0,1-1.5-1.5c0-.8.12-19.5,10.5-19.5s10.5,18.7,10.5,19.5a1.5,1.5,0,0,1-1.5,1.5h0a1.5,1.5,0,0,1-1.5-1.5c0-.16-.22-16.5-7.5-16.5s-7.5,16.33-7.5,16.5A1.5,1.5,0,0,1,18.24,21Z" transform="translate(0)"/><path class="cls-1" d="M18.34,27.2A4.17,4.17,0,1,1,22.51,23,4.17,4.17,0,0,1,18.34,27.2Zm0-5.34A1.17,1.17,0,1,0,19.51,23,1.17,1.17,0,0,0,18.34,21.86Z" transform="translate(0)"/><path class="cls-1" d="M36.34,27.2A4.17,4.17,0,1,1,40.51,23,4.17,4.17,0,0,1,36.34,27.2Zm0-5.34A1.17,1.17,0,1,0,37.51,23,1.17,1.17,0,0,0,36.34,21.86Z" transform="translate(0)"/></svg>